<?xml version="1.0" encoding="UTF-8"?>
<!-- Created with Inkscape (http://www.inkscape.org/) -->
<svg width="237.89pt" height="147.75pt" version="1.1" viewBox="0 0 83.923982 52.122927" xmlns="http://www.w3.org/2000/svg" xmlns:cc="http://creativecommons.org/ns#" xmlns:dc="http://purl.org/dc/elements/1.1/" xmlns:rdf="http://www.w3.org/1999/02/22-rdf-syntax-ns#">
 <metadata>
  <rdf:RDF>
   <cc:Work rdf:about="">
    <dc:format>image/svg+xml</dc:format>
    <dc:type rdf:resource="http://purl.org/dc/dcmitype/StillImage"/>
    <dc:title/>
   </cc:Work>
  </rdf:RDF>
 </metadata>
 <g transform="translate(-33.653 -73.178)" stroke-linecap="round" stroke-linejoin="round">
  <path d="m87.598 88.676a10.166 10.166 0 0 1 -10.099 10.166 10.166 10.166 0 0 1 -10.232 -10.032 10.166 10.166 0 0 1 9.9649 -10.298 10.166 10.166 0 0 1 10.363 9.897z" fill="#dff0d8" stroke="#589258" stroke-width="1.7639"/>
  <path d="m87.598 112.49a10.166 10.166 0 0 1 -10.099 10.166 10.166 10.166 0 0 1 -10.232 -10.032 10.166 10.166 0 0 1 9.9649 -10.298 10.166 10.166 0 0 1 10.363 9.897z" fill="#dff0d8" stroke="#589258" stroke-width="1.7639"/>
  <g stroke-width="1.4111">
   <path d="m53.295 84.233c0 2.2131 8.6588 10.88 18.277 15.431-15.324-1.0224-24.3-6.8615-26.807-6.845-4.7199 0.031-8.5798-3.7536-8.6418-8.4732-0.06192-4.7196 3.6972-8.6042 8.4162-8.6972 4.7191-0.09296 8.6283 3.6406 8.7523 8.3589" fill="#bce8f1" stroke="#8dd0dc"/>
   <path d="m56.373 114.28c0-1.8513 7.2432-9.1013 15.289-12.908-12.819 0.8551-20.327 5.7395-22.424 5.7258-3.9483-0.025-7.1772 3.1401-7.229 7.0881-0.05172 3.948 3.0927 7.1972 7.0403 7.2752 3.9476 0.0778 7.2177-3.0454 7.3215-6.9922" fill="#ebccd1" stroke="#ca9aa2"/>
   <path d="m115.11 100.51c0 5.8056-4.6862 10.523-10.492 10.561-2.8941 0.019-5.5253-1.1283-7.446-3.003-1.9322-1.8859-8.3739-4.7752-13.958-7.486 5.7083-2.7602 11.866-5.4657 13.728-7.3986 1.8732-1.9446 4.4872-3.1749 7.3982-3.2322 5.8045-0.11436 10.613 4.478 10.765 10.282" fill="#c3cef3" stroke="#98a9e1"/>
  </g>
  <path d="m40.787 100.62c0-2.9063 2.3459-5.2676 5.2521-5.2867 1.4488-0.0095 2.7659 0.56482 3.7274 1.5033 0.96725 0.94409 9.1809 3.0911 13.535 3.881-4.1805 0.43691-12.488 2.6026-13.42 3.5701-0.93771 0.97344-2.2463 1.5894-3.7035 1.6182-2.9057 0.0573-5.3128-2.2418-5.3891-5.1471" fill="#faebcc" stroke="#d6c194" stroke-width="1.0583"/>
 </g>
</svg>
